<?xml version="1.0" encoding="UTF-8"?> <!-- Generator: Adobe Illustrator 24.0.1, SVG Export Plug-In . SVG Version: 6.00 Build 0) --> <svg xmlns="http://www.w3.org/2000/svg" xmlns:xlink="http://www.w3.org/1999/xlink" id="Layer_1" x="0px" y="0px" viewBox="0 0 841.4 1470.6" style="enable-background:new 0 0 841.4 1470.6;" xml:space="preserve"> <style type="text/css"> .st0{fill:#1A203C;} .st1{fill:#3286AA;} </style> <g> <g> <path class="st0" d="M169.4,1126c0,32.4-16.2,50.9-47.4,50.9c-31.2,0-47.4-18.5-47.4-50.9v-105.2c0-32.4,16.2-50.9,47.4-50.9 c31.2,0,47.4,18.5,47.4,50.9v19.6h-30.1v-21.7c0-14.4-6.4-19.9-16.5-19.9c-10.1,0-16.5,5.5-16.5,19.9V1128 c0,14.5,6.4,19.7,16.5,19.7c10.1,0,16.5-5.2,16.5-19.7v-28.9h30.1V1126z"></path> <path class="st0" d="M277.8,972.2v28.9h-33.2v173.4h-31.8v-173.4h-33.2v-28.9H277.8z"></path> <path class="st0" d="M298,1174.8v-28.3c16.2,1.2,25.4-1.7,28-16.5l0.3-1.7l-43.9-156h31.5l17.3,69.1l9.8,47.4l7.5-47.1l14.4-69.4 h33.2l-34.1,150.8C354.6,1159.5,342.2,1177.7,298,1174.8z"></path> <path class="st0" d="M501.4,1174.5h-67.9v27.2h-30.9v-55.5H415c5.5-6.9,7.2-14.4,7.8-26.3l7.2-147.7h89v174h13.9v55.5h-31.5 V1174.5z M445.1,1146.2h41.6v-145.1h-26.9l-5.8,118.2C453.1,1134.6,450.3,1141.3,445.1,1146.2z"></path> <path class="st0" d="M550.5,1174.5V972.2h28.3v128l11.6-44.5l26-83.5h35v202.3h-28.6V1032l-13,49.7l-26.6,92.8H550.5z"></path> <path class="st0" d="M671.6,1149.9v-31.2c0-21.1,5.2-36.4,21.1-43.1c-14.2-6.6-20.8-20.2-20.8-41v-15.9 c0-31.2,14.2-46.5,47.1-46.5h48v202.3h-31.8v-82.4h-11c-14.4,0-20.8,6.9-20.8,25.7v31.8c0,16.5-1.2,19.6-2.9,24.9h-32.4 C671.3,1167,671.6,1159.8,671.6,1149.9z M703.7,1021.9v19.9c0,16.2,7.2,21.4,19.1,21.4h12.4v-62.1h-15.3 C708.6,1001.1,703.7,1007.5,703.7,1021.9z"></path> </g> <g> <path class="st1" d="M30.1,1390.6l5.2-152.9h89.9V1440H92.8v-173.4H65.1l-3.5,122.2c-1.2,37-14.4,51.4-46.2,51.4h-4.9v-28.9 C24.9,1411.4,29.5,1409.4,30.1,1390.6z"></path> <path class="st1" d="M224.9,1323v28.9h-43.6v59.2h54.9v28.9h-86.7v-202.3h86.7v28.9h-54.9v56.4H224.9z"></path> <path class="st1" d="M348,1391.5c0,32.4-16.2,50.9-47.4,50.9c-31.2,0-47.4-18.5-47.4-50.9v-105.2c0-32.4,16.2-50.9,47.4-50.9 c31.2,0,47.4,18.5,47.4,50.9v19.6h-30.1v-21.7c0-14.4-6.4-19.9-16.5-19.9c-10.1,0-16.5,5.5-16.5,19.9v109.2 c0,14.5,6.4,19.7,16.5,19.7c10.1,0,16.5-5.2,16.5-19.7v-28.9H348V1391.5z"></path> <path class="st1" d="M456.3,1237.8v28.9h-33.2V1440h-31.8v-173.4h-33.2v-28.9H456.3z"></path> <path class="st1" d="M470.2,1440v-202.3H502v86.7h36.1v-86.7h32.4V1440h-32.4v-86.7H502v86.7H470.2z"></path> <path class="st1" d="M593.6,1440v-202.3h28.3v128l11.6-44.5l26-83.5h35V1440h-28.6v-142.5l-13,49.7l-26.6,92.8H593.6z"></path> <path class="st1" d="M748.7,1237.8v173.4h36.1v-173.4h32.4v174h13.9v55.5h-30.9V1440H717v-202.3H748.7z"></path> </g> </g> <g> <path class="st0" d="M639.4,796.7L128,638.5V510.5l585.5,181.2v51.2C713.5,788.1,683.1,810.2,639.4,796.7z"></path> <path class="st0" d="M713.5,302.5L128,121.4V70.2c0-45.3,30.4-67.3,74.1-53.8l511.4,158.2V302.5z"></path> <polygon class="st0" points="713.5,561 128,379.9 128,252 713.5,433.1 "></polygon> <polygon class="st1" points="713.5,302.4 128,379.9 128,252 713.5,174.5 "></polygon> <polygon class="st1" points="713.5,561 128,638.5 128,510.6 713.5,433.1 "></polygon> </g> </svg> 